<svg width="117" height="120" viewBox="0 0 117 120" fill="none" xmlns="http://www.w3.org/2000/svg">
<mask id="mask0_964_34" style="mask-type:alpha" maskUnits="userSpaceOnUse" x="1" y="50" width="116" height="47">
<path d="M116.574 96.002H1.07832L1.40925 71.7623L116.574 50.2352V96.002Z" fill="white"/>
</mask>
<g mask="url(#mask0_964_34)">
<path d="M101.459 93.9247C95.8869 93.9247 91.0312 90.2637 91.0312 83.5371C91.0312 76.8106 95.9764 73.1055 101.526 73.1055C107.098 73.1055 111.976 76.7665 111.976 83.493C111.976 90.2196 107.008 93.9247 101.459 93.9247ZM101.459 77.9795C99.1763 77.9795 96.8939 79.8541 96.8939 83.493C96.8939 87.132 99.221 89.0507 101.503 89.0507C103.786 89.0507 106.068 87.1761 106.068 83.5371C106.068 79.8982 103.741 77.9795 101.459 77.9795Z" fill="white"/>
<path d="M82.3711 93.6054V73.4258H88.1666V93.6054H82.3711Z" fill="white"/>
<path d="M67.9153 93.6054H61.2695V73.4258H68.43C74.8744 73.4258 78.9693 75.8297 78.9693 83.3943C78.9693 90.9589 75.1877 93.6054 67.9153 93.6054ZM68.4076 78.1895H66.9979V88.7976H68.2286C71.7641 88.7976 73.1514 87.4743 73.1514 83.4605C73.1514 79.7554 71.9655 78.1895 68.4076 78.1895Z" fill="white"/>
<path d="M49.1001 93.7599C43.9535 93.7599 40.1719 91.2237 40.1719 84.8279V73.2715H45.9674V84.8279C45.9674 87.298 46.9519 88.8418 49.1896 88.8418C51.4272 88.8418 52.3447 87.3201 52.3447 84.8279V73.2715H58.1402V84.8279C58.1402 91.2237 54.2467 93.7599 49.1001 93.7599Z" fill="white"/>
<path d="M31.8651 78.2998V93.6054H26.1815V78.2998H20.4531V73.4258H37.5935V78.2998H31.8651Z" fill="white"/>
<path d="M10.6764 93.935C7.36466 93.935 4.1872 92.8764 2.03906 91.487L4.79137 87.0982C6.29059 88.1127 8.88626 89.1051 10.7883 89.1051C12.8021 89.1051 13.4511 88.7523 13.4511 87.8039C13.4511 87.0541 12.7126 86.591 9.96033 85.9514C5.01513 84.8266 2.64323 83.5034 2.64323 79.4674C2.64323 75.652 5.77593 73.0938 10.7211 73.0938C14.2119 73.0938 16.718 73.9318 18.8885 75.4315L16.1362 79.8203C14.3237 78.6073 12.5112 77.9236 10.4302 77.9236C8.72962 77.9236 8.32684 78.4529 8.32684 79.1587C8.32684 79.8644 9.06527 80.2614 11.6833 80.8569C16.8299 82.0698 19.1123 83.6136 19.1123 87.407C19.1347 92.0384 15.5992 93.935 10.6764 93.935Z" fill="white"/>
</g>
<mask id="mask1_964_34" style="mask-type:alpha" maskUnits="userSpaceOnUse" x="1" y="25" width="116" height="47">
<path d="M116.574 71.0801H1.07832L1.40925 46.8405L116.574 25.3133V71.0801Z" fill="white"/>
</mask>
<g mask="url(#mask1_964_34)">
<path d="M105.013 68.7056L100.135 62.0452C99.2401 60.8102 97.4723 58.2078 96.9577 57.3036C97.1143 58.1857 97.1367 60.8764 97.1367 62.5304V68.7056H91.6992V48.5039H96.7115L101.209 54.4806C102.149 55.7157 103.962 58.4063 104.387 59.2443C104.23 58.3622 104.208 55.6715 104.208 54.0175V48.5039H109.645V68.6836L105.013 68.7056Z" fill="white"/>
<path d="M79.2593 69.0145C73.6428 69.0145 69.8164 65.1992 69.8164 58.6049C69.8164 52.6282 73.1505 48.1953 79.3488 48.1953C84.473 48.1953 86.4645 50.0699 87.919 53.8412L87.9637 53.9515L82.7724 55.8261C82.1011 54.0838 81.2731 53.0693 79.3264 53.0693C76.6636 53.0693 75.7462 55.4071 75.7462 58.6049C75.7462 62.6188 77.0664 64.2949 79.7068 64.2949C82.1011 64.2949 82.9066 63.1922 83.1304 61.8248H79.4159V57.6345H88.4336V60.0826C88.4112 65.8387 85.2114 69.0145 79.2593 69.0145Z" fill="white"/>
<path d="M61.2891 68.7056V48.5039H67.0846V68.7056H61.2891Z" fill="white"/>
<path d="M49.5904 69.0145C46.2787 69.0145 43.1013 67.9559 40.9531 66.5665L43.7054 62.1777C45.2047 63.1922 47.8003 64.2067 49.7023 64.2067C51.7162 64.2067 52.3651 63.8538 52.3651 62.9055C52.3651 62.1557 51.6267 61.6925 48.8744 61.0529C43.9292 59.9282 41.5573 58.6049 41.5573 54.569C41.5573 50.7536 44.69 48.1953 49.6352 48.1953C53.1259 48.1953 55.6321 49.0334 57.8026 50.5331L55.0727 54.9219C53.2602 53.7089 51.4477 53.0252 49.3667 53.0252C47.6661 53.0252 47.2633 53.5545 47.2633 54.2602C47.2633 54.966 48.0017 55.363 50.6198 55.9584C55.7663 57.1714 58.0487 58.7372 58.0487 62.5085C58.0711 67.1179 54.5133 69.0145 49.5904 69.0145Z" fill="white"/>
<path d="M23.3633 68.7056V48.5039H39.0492V53.2015H28.9798V55.8921H35.0438V60.5455H28.9798V64.0081H39.2506V68.7056H23.3633Z" fill="white"/>
<path d="M9.13018 68.7056H2.48438V48.5039H9.64484C16.0893 48.5039 20.1841 50.9078 20.1841 58.4724C20.1841 66.0371 16.3802 68.7056 9.13018 68.7056ZM9.62246 53.2897H8.21275V63.8978H9.44345C12.9789 63.8978 14.3663 62.5745 14.3663 58.5607C14.3663 54.8555 13.1579 53.2897 9.62246 53.2897Z" fill="white"/>
</g>
<mask id="mask2_964_34" style="mask-type:alpha" maskUnits="userSpaceOnUse" x="0" y="0" width="44" height="18">
<rect width="43.9315" height="17.3416" fill="white"/>
</mask>
<g mask="url(#mask2_964_34)">
<path d="M43.0281 2.60938L2.10156 17.3416L43.0281 10.196V2.60938Z" fill="#FFE600"/>
</g>
<mask id="mask3_964_34" style="mask-type:alpha" maskUnits="userSpaceOnUse" x="1" y="0" width="116" height="46">
<path d="M116.574 45.7676H1.07832L1.40925 21.528L116.574 0.000820566V45.7676Z" fill="#161D23"/>
</mask>
<g mask="url(#mask3_964_34)">
<path d="M26.4942 30.0876L23.0034 23.4492H16.1562L23.3615 35.7776V43.8053H29.5374V35.7776L36.7873 23.4492H30.0073L26.4942 30.0876Z" fill="white"/>
<path d="M8.68159 35.7561H16.1553V31.4775H8.68159V28.1032H16.9609L14.2086 23.4277H2.46094V43.8059H19.0195V39.1304H8.68159V35.7561Z" fill="white"/>
</g>
<path d="M63.6081 98.1445V119H58.883L51.3473 108.043H51.2251V119H45.5631V98.1445H50.3697L57.7832 109.061H57.9461V98.1445H63.6081Z" fill="#FFE600"/>
<path d="M28.157 119H22.047L28.931 98.1445H36.6704L43.5544 119H37.4443L32.8821 103.888H32.7192L28.157 119ZM27.0165 110.772H38.5034V115.008H27.0165V110.772Z" fill="#FFE600"/>
<path d="M20.8148 105.965H15.0714C15.0307 105.49 14.922 105.059 14.7455 104.672C14.5758 104.285 14.3382 103.952 14.0327 103.674C13.734 103.389 13.3708 103.172 12.9431 103.022C12.5154 102.866 12.03 102.788 11.4868 102.788C10.5364 102.788 9.73189 103.019 9.07337 103.481C8.42163 103.942 7.92604 104.604 7.58659 105.466C7.25393 106.329 7.0876 107.364 7.0876 108.572C7.0876 109.849 7.25733 110.918 7.59677 111.78C7.94301 112.635 8.442 113.28 9.09374 113.715C9.74547 114.143 10.5296 114.356 11.4461 114.356C11.9689 114.356 12.4373 114.292 12.8514 114.163C13.2655 114.027 13.6254 113.834 13.9309 113.583C14.2364 113.331 14.4842 113.029 14.6742 112.676C14.8711 112.316 15.0035 111.912 15.0714 111.464L20.8148 111.505C20.7469 112.388 20.4992 113.287 20.0714 114.204C19.6437 115.113 19.0361 115.955 18.2486 116.729C17.4679 117.496 16.5005 118.114 15.3463 118.583C14.1922 119.051 12.8514 119.285 11.3239 119.285C9.40942 119.285 7.69182 118.875 6.1711 118.053C4.65716 117.232 3.45892 116.023 2.57635 114.428C1.70058 112.832 1.2627 110.881 1.2627 108.572C1.2627 106.251 1.71077 104.295 2.6069 102.707C3.50304 101.111 4.71148 99.9062 6.2322 99.0916C7.75292 98.2701 9.45015 97.8594 11.3239 97.8594C12.641 97.8594 13.8528 98.0393 14.9594 98.3991C16.066 98.7589 17.0368 99.2851 17.8718 99.9775C18.7069 100.663 19.379 101.508 19.8881 102.513C20.3973 103.518 20.7062 104.669 20.8148 105.965Z" fill="#FFE600"/>
</svg>
